<mxfile host="app.diagrams.net" modified="2021-08-12T08:42:03.692Z" agent="5.0 (Windows NT 10.0; Win64; x64) AppleWebKit/537.36 (KHTML, like Gecko) Chrome/92.0.4515.107 Safari/537.36" etag="BLHrHomDfbkJc4KOER-R" version="14.9.6" type="github">
  <diagram id="C5RBs43oDa-KdzZeNtuy" name="Page-1">
    <mxGraphModel dx="1422" dy="959" grid="1" gridSize="10" guides="1" tooltips="1" connect="1" arrows="1" fold="1" page="1" pageScale="1" pageWidth="827" pageHeight="1169" math="0" shadow="0">
      <root>
        <mxCell id="WIyWlLk6GJQsqaUBKTNV-0" />
        <mxCell id="WIyWlLk6GJQsqaUBKTNV-1" parent="WIyWlLk6GJQsqaUBKTNV-0" />
        <mxCell id="jWXVGDuvpxij76FHgJUa-127" value="" style="swimlane;startSize=0;fontSize=16;dashed=1;" vertex="1" parent="WIyWlLk6GJQsqaUBKTNV-1">
          <mxGeometry x="40" y="1520" width="1165" height="730" as="geometry" />
        </mxCell>
        <mxCell id="jWXVGDuvpxij76FHgJUa-138" value="Loop" style="text;html=1;align=center;verticalAlign=middle;resizable=0;points=[];autosize=1;strokeColor=none;fontSize=16;" vertex="1" parent="jWXVGDuvpxij76FHgJUa-127">
          <mxGeometry x="20" y="10" width="50" height="20" as="geometry" />
        </mxCell>
        <mxCell id="jWXVGDuvpxij76FHgJUa-139" value="MQTT指令&lt;br&gt;串口指令" style="html=1;dashed=0;whitespace=wrap;fontSize=16;" vertex="1" parent="jWXVGDuvpxij76FHgJUa-127">
          <mxGeometry x="30" y="478.75" width="100" height="87.5" as="geometry" />
        </mxCell>
        <mxCell id="jWXVGDuvpxij76FHgJUa-140" value="MQTT上报&lt;br&gt;串口上报" style="html=1;dashed=0;whitespace=wrap;fontSize=16;" vertex="1" parent="jWXVGDuvpxij76FHgJUa-127">
          <mxGeometry x="1020" y="440" width="100" height="87.5" as="geometry" />
        </mxCell>
        <mxCell id="jWXVGDuvpxij76FHgJUa-142" value="WIFI&amp;nbsp;连接？" style="shape=rhombus;html=1;dashed=0;whitespace=wrap;perimeter=rhombusPerimeter;fontSize=16;" vertex="1" parent="jWXVGDuvpxij76FHgJUa-127">
          <mxGeometry x="190" y="100" width="130" height="60" as="geometry" />
        </mxCell>
        <mxCell id="jWXVGDuvpxij76FHgJUa-144" value="MQTT连接" style="html=1;dashed=0;whitespace=wrap;fontSize=16;" vertex="1" parent="jWXVGDuvpxij76FHgJUa-127">
          <mxGeometry x="425" y="105" width="100" height="50" as="geometry" />
        </mxCell>
        <mxCell id="jWXVGDuvpxij76FHgJUa-141" value="Yes" style="edgeStyle=orthogonalEdgeStyle;rounded=0;orthogonalLoop=1;jettySize=auto;html=1;exitX=1;exitY=0.5;exitDx=0;exitDy=0;entryX=0;entryY=0.5;entryDx=0;entryDy=0;fontSize=16;startArrow=none;startFill=0;" edge="1" parent="jWXVGDuvpxij76FHgJUa-127" source="jWXVGDuvpxij76FHgJUa-142" target="jWXVGDuvpxij76FHgJUa-144">
          <mxGeometry relative="1" as="geometry" />
        </mxCell>
        <mxCell id="jWXVGDuvpxij76FHgJUa-147" value="MQTT 连接？" style="shape=rhombus;html=1;dashed=0;whitespace=wrap;perimeter=rhombusPerimeter;fontSize=16;" vertex="1" parent="jWXVGDuvpxij76FHgJUa-127">
          <mxGeometry x="595" y="100" width="130" height="60" as="geometry" />
        </mxCell>
        <mxCell id="jWXVGDuvpxij76FHgJUa-152" value="采码成功？" style="shape=rhombus;html=1;dashed=0;whitespace=wrap;perimeter=rhombusPerimeter;fontSize=16;" vertex="1" parent="jWXVGDuvpxij76FHgJUa-127">
          <mxGeometry x="562" y="290" width="140" height="60" as="geometry" />
        </mxCell>
        <mxCell id="jWXVGDuvpxij76FHgJUa-143" style="edgeStyle=orthogonalEdgeStyle;rounded=0;orthogonalLoop=1;jettySize=auto;html=1;exitX=1;exitY=0.5;exitDx=0;exitDy=0;fontSize=16;startArrow=none;startFill=0;" edge="1" parent="jWXVGDuvpxij76FHgJUa-127" source="jWXVGDuvpxij76FHgJUa-144" target="jWXVGDuvpxij76FHgJUa-147">
          <mxGeometry relative="1" as="geometry" />
        </mxCell>
        <mxCell id="jWXVGDuvpxij76FHgJUa-153" style="edgeStyle=orthogonalEdgeStyle;rounded=0;orthogonalLoop=1;jettySize=auto;html=1;exitX=1;exitY=0.5;exitDx=0;exitDy=0;entryX=0.5;entryY=0;entryDx=0;entryDy=0;fontSize=16;startArrow=none;startFill=0;" edge="1" parent="jWXVGDuvpxij76FHgJUa-127" source="jWXVGDuvpxij76FHgJUa-154" target="jWXVGDuvpxij76FHgJUa-140">
          <mxGeometry relative="1" as="geometry" />
        </mxCell>
        <mxCell id="jWXVGDuvpxij76FHgJUa-154" value="采码上报？" style="shape=rhombus;html=1;dashed=0;whitespace=wrap;perimeter=rhombusPerimeter;fontSize=16;" vertex="1" parent="jWXVGDuvpxij76FHgJUa-127">
          <mxGeometry x="788" y="290" width="140" height="60" as="geometry" />
        </mxCell>
        <mxCell id="jWXVGDuvpxij76FHgJUa-148" style="edgeStyle=orthogonalEdgeStyle;rounded=0;orthogonalLoop=1;jettySize=auto;html=1;exitX=1;exitY=0.5;exitDx=0;exitDy=0;entryX=0;entryY=0.5;entryDx=0;entryDy=0;fontSize=16;startArrow=none;startFill=0;" edge="1" parent="jWXVGDuvpxij76FHgJUa-127" source="jWXVGDuvpxij76FHgJUa-152" target="jWXVGDuvpxij76FHgJUa-154">
          <mxGeometry relative="1" as="geometry" />
        </mxCell>
        <mxCell id="jWXVGDuvpxij76FHgJUa-149" value="Yes" style="edgeLabel;html=1;align=center;verticalAlign=middle;resizable=0;points=[];fontSize=16;" vertex="1" connectable="0" parent="jWXVGDuvpxij76FHgJUa-148">
          <mxGeometry x="0.1867" y="-2" relative="1" as="geometry">
            <mxPoint as="offset" />
          </mxGeometry>
        </mxCell>
        <mxCell id="jWXVGDuvpxij76FHgJUa-156" value="解码" style="html=1;dashed=0;whitespace=wrap;fontSize=16;" vertex="1" parent="jWXVGDuvpxij76FHgJUa-127">
          <mxGeometry x="405" y="415" width="100" height="50" as="geometry" />
        </mxCell>
        <mxCell id="jWXVGDuvpxij76FHgJUa-150" style="edgeStyle=orthogonalEdgeStyle;rounded=0;orthogonalLoop=1;jettySize=auto;html=1;exitX=1;exitY=0.5;exitDx=0;exitDy=0;fontSize=16;startArrow=none;startFill=0;" edge="1" parent="jWXVGDuvpxij76FHgJUa-127" source="jWXVGDuvpxij76FHgJUa-152" target="jWXVGDuvpxij76FHgJUa-156">
          <mxGeometry relative="1" as="geometry" />
        </mxCell>
        <mxCell id="jWXVGDuvpxij76FHgJUa-151" value="Yes" style="edgeLabel;html=1;align=center;verticalAlign=middle;resizable=0;points=[];fontSize=16;" vertex="1" connectable="0" parent="jWXVGDuvpxij76FHgJUa-150">
          <mxGeometry x="0.5455" y="1" relative="1" as="geometry">
            <mxPoint as="offset" />
          </mxGeometry>
        </mxCell>
        <mxCell id="jWXVGDuvpxij76FHgJUa-159" value="解码成功？" style="shape=rhombus;html=1;dashed=0;whitespace=wrap;perimeter=rhombusPerimeter;fontSize=16;" vertex="1" parent="jWXVGDuvpxij76FHgJUa-127">
          <mxGeometry x="562" y="410" width="140" height="60" as="geometry" />
        </mxCell>
        <mxCell id="jWXVGDuvpxij76FHgJUa-155" style="edgeStyle=orthogonalEdgeStyle;rounded=0;orthogonalLoop=1;jettySize=auto;html=1;exitX=1;exitY=0.5;exitDx=0;exitDy=0;fontSize=16;startArrow=none;startFill=0;entryX=0;entryY=0.5;entryDx=0;entryDy=0;" edge="1" parent="jWXVGDuvpxij76FHgJUa-127" source="jWXVGDuvpxij76FHgJUa-156" target="jWXVGDuvpxij76FHgJUa-159">
          <mxGeometry relative="1" as="geometry">
            <mxPoint x="578" y="445" as="targetPoint" />
          </mxGeometry>
        </mxCell>
        <mxCell id="jWXVGDuvpxij76FHgJUa-160" style="edgeStyle=orthogonalEdgeStyle;rounded=0;orthogonalLoop=1;jettySize=auto;html=1;exitX=1;exitY=0.5;exitDx=0;exitDy=0;entryX=0;entryY=0.25;entryDx=0;entryDy=0;fontSize=16;startArrow=none;startFill=0;" edge="1" parent="jWXVGDuvpxij76FHgJUa-127" source="jWXVGDuvpxij76FHgJUa-161" target="jWXVGDuvpxij76FHgJUa-140">
          <mxGeometry relative="1" as="geometry" />
        </mxCell>
        <mxCell id="jWXVGDuvpxij76FHgJUa-161" value="解码上报？" style="shape=rhombus;html=1;dashed=0;whitespace=wrap;perimeter=rhombusPerimeter;fontSize=16;" vertex="1" parent="jWXVGDuvpxij76FHgJUa-127">
          <mxGeometry x="788" y="410" width="140" height="60" as="geometry" />
        </mxCell>
        <mxCell id="jWXVGDuvpxij76FHgJUa-162" value="Yes or No" style="edgeLabel;html=1;align=center;verticalAlign=middle;resizable=0;points=[];fontSize=16;" vertex="1" connectable="0" parent="jWXVGDuvpxij76FHgJUa-127">
          <mxGeometry x="110" y="102" as="geometry" />
        </mxCell>
        <mxCell id="jWXVGDuvpxij76FHgJUa-164" style="edgeStyle=orthogonalEdgeStyle;rounded=0;orthogonalLoop=1;jettySize=auto;html=1;entryX=0;entryY=0.5;entryDx=0;entryDy=0;fontSize=16;startArrow=none;startFill=0;" edge="1" parent="jWXVGDuvpxij76FHgJUa-127" source="jWXVGDuvpxij76FHgJUa-185" target="jWXVGDuvpxij76FHgJUa-156">
          <mxGeometry relative="1" as="geometry" />
        </mxCell>
        <mxCell id="jWXVGDuvpxij76FHgJUa-168" value="编码" style="html=1;dashed=0;whitespace=wrap;fontSize=16;" vertex="1" parent="jWXVGDuvpxij76FHgJUa-127">
          <mxGeometry x="405" y="510" width="100" height="50" as="geometry" />
        </mxCell>
        <mxCell id="jWXVGDuvpxij76FHgJUa-157" style="edgeStyle=orthogonalEdgeStyle;rounded=0;orthogonalLoop=1;jettySize=auto;html=1;exitX=1;exitY=0.5;exitDx=0;exitDy=0;entryX=0;entryY=0.5;entryDx=0;entryDy=0;fontSize=16;startArrow=none;startFill=0;" edge="1" parent="jWXVGDuvpxij76FHgJUa-127" source="jWXVGDuvpxij76FHgJUa-159" target="jWXVGDuvpxij76FHgJUa-161">
          <mxGeometry relative="1" as="geometry">
            <Array as="points">
              <mxPoint x="728" y="440" />
              <mxPoint x="728" y="440" />
            </Array>
          </mxGeometry>
        </mxCell>
        <mxCell id="jWXVGDuvpxij76FHgJUa-158" value="Yes" style="edgeLabel;html=1;align=center;verticalAlign=middle;resizable=0;points=[];fontSize=16;" vertex="1" connectable="0" parent="jWXVGDuvpxij76FHgJUa-157">
          <mxGeometry x="-0.2791" relative="1" as="geometry">
            <mxPoint as="offset" />
          </mxGeometry>
        </mxCell>
        <mxCell id="jWXVGDuvpxij76FHgJUa-171" value="编码成功？" style="shape=rhombus;html=1;dashed=0;whitespace=wrap;perimeter=rhombusPerimeter;fontSize=16;" vertex="1" parent="jWXVGDuvpxij76FHgJUa-127">
          <mxGeometry x="559" y="505" width="140" height="60" as="geometry" />
        </mxCell>
        <mxCell id="jWXVGDuvpxij76FHgJUa-167" style="edgeStyle=orthogonalEdgeStyle;rounded=0;orthogonalLoop=1;jettySize=auto;html=1;exitX=1;exitY=0.5;exitDx=0;exitDy=0;entryX=0;entryY=0.5;entryDx=0;entryDy=0;fontSize=16;startArrow=none;startFill=0;" edge="1" parent="jWXVGDuvpxij76FHgJUa-127" source="jWXVGDuvpxij76FHgJUa-168" target="jWXVGDuvpxij76FHgJUa-171">
          <mxGeometry relative="1" as="geometry" />
        </mxCell>
        <mxCell id="jWXVGDuvpxij76FHgJUa-172" style="edgeStyle=orthogonalEdgeStyle;rounded=0;orthogonalLoop=1;jettySize=auto;html=1;exitX=1;exitY=0.5;exitDx=0;exitDy=0;entryX=0;entryY=0.75;entryDx=0;entryDy=0;fontSize=16;startArrow=none;startFill=0;" edge="1" parent="jWXVGDuvpxij76FHgJUa-127" source="jWXVGDuvpxij76FHgJUa-173" target="jWXVGDuvpxij76FHgJUa-140">
          <mxGeometry relative="1" as="geometry" />
        </mxCell>
        <mxCell id="jWXVGDuvpxij76FHgJUa-173" value="编码上报？" style="shape=rhombus;html=1;dashed=0;whitespace=wrap;perimeter=rhombusPerimeter;fontSize=16;" vertex="1" parent="jWXVGDuvpxij76FHgJUa-127">
          <mxGeometry x="785" y="505" width="140" height="60" as="geometry" />
        </mxCell>
        <mxCell id="jWXVGDuvpxij76FHgJUa-169" style="edgeStyle=orthogonalEdgeStyle;rounded=0;orthogonalLoop=1;jettySize=auto;html=1;exitX=1;exitY=0.5;exitDx=0;exitDy=0;entryX=0;entryY=0.5;entryDx=0;entryDy=0;fontSize=16;startArrow=none;startFill=0;" edge="1" parent="jWXVGDuvpxij76FHgJUa-127" source="jWXVGDuvpxij76FHgJUa-171" target="jWXVGDuvpxij76FHgJUa-173">
          <mxGeometry relative="1" as="geometry">
            <Array as="points">
              <mxPoint x="725" y="535" />
              <mxPoint x="725" y="535" />
            </Array>
          </mxGeometry>
        </mxCell>
        <mxCell id="jWXVGDuvpxij76FHgJUa-170" value="Yes" style="edgeLabel;html=1;align=center;verticalAlign=middle;resizable=0;points=[];fontSize=16;" vertex="1" connectable="0" parent="jWXVGDuvpxij76FHgJUa-169">
          <mxGeometry x="-0.2791" relative="1" as="geometry">
            <mxPoint as="offset" />
          </mxGeometry>
        </mxCell>
        <mxCell id="jWXVGDuvpxij76FHgJUa-175" value="发送" style="html=1;dashed=0;whitespace=wrap;fontSize=16;" vertex="1" parent="jWXVGDuvpxij76FHgJUa-127">
          <mxGeometry x="405" y="605" width="100" height="50" as="geometry" />
        </mxCell>
        <mxCell id="jWXVGDuvpxij76FHgJUa-178" value="发送完成？" style="shape=rhombus;html=1;dashed=0;whitespace=wrap;perimeter=rhombusPerimeter;fontSize=16;" vertex="1" parent="jWXVGDuvpxij76FHgJUa-127">
          <mxGeometry x="559" y="600" width="140" height="60" as="geometry" />
        </mxCell>
        <mxCell id="jWXVGDuvpxij76FHgJUa-174" style="edgeStyle=orthogonalEdgeStyle;rounded=0;orthogonalLoop=1;jettySize=auto;html=1;exitX=1;exitY=0.5;exitDx=0;exitDy=0;entryX=0;entryY=0.5;entryDx=0;entryDy=0;fontSize=16;startArrow=none;startFill=0;" edge="1" parent="jWXVGDuvpxij76FHgJUa-127" source="jWXVGDuvpxij76FHgJUa-175" target="jWXVGDuvpxij76FHgJUa-178">
          <mxGeometry relative="1" as="geometry" />
        </mxCell>
        <mxCell id="jWXVGDuvpxij76FHgJUa-179" style="edgeStyle=orthogonalEdgeStyle;rounded=0;orthogonalLoop=1;jettySize=auto;html=1;exitX=1;exitY=0.5;exitDx=0;exitDy=0;entryX=0.5;entryY=1;entryDx=0;entryDy=0;fontSize=16;startArrow=none;startFill=0;" edge="1" parent="jWXVGDuvpxij76FHgJUa-127" source="jWXVGDuvpxij76FHgJUa-180" target="jWXVGDuvpxij76FHgJUa-140">
          <mxGeometry relative="1" as="geometry" />
        </mxCell>
        <mxCell id="jWXVGDuvpxij76FHgJUa-180" value="上报？" style="shape=rhombus;html=1;dashed=0;whitespace=wrap;perimeter=rhombusPerimeter;fontSize=16;" vertex="1" parent="jWXVGDuvpxij76FHgJUa-127">
          <mxGeometry x="785" y="600" width="140" height="60" as="geometry" />
        </mxCell>
        <mxCell id="jWXVGDuvpxij76FHgJUa-176" style="edgeStyle=orthogonalEdgeStyle;rounded=0;orthogonalLoop=1;jettySize=auto;html=1;exitX=1;exitY=0.5;exitDx=0;exitDy=0;entryX=0;entryY=0.5;entryDx=0;entryDy=0;fontSize=16;startArrow=none;startFill=0;" edge="1" parent="jWXVGDuvpxij76FHgJUa-127" source="jWXVGDuvpxij76FHgJUa-178" target="jWXVGDuvpxij76FHgJUa-180">
          <mxGeometry relative="1" as="geometry">
            <Array as="points">
              <mxPoint x="725" y="630" />
              <mxPoint x="725" y="630" />
            </Array>
          </mxGeometry>
        </mxCell>
        <mxCell id="jWXVGDuvpxij76FHgJUa-177" value="Yes" style="edgeLabel;html=1;align=center;verticalAlign=middle;resizable=0;points=[];fontSize=16;" vertex="1" connectable="0" parent="jWXVGDuvpxij76FHgJUa-176">
          <mxGeometry x="-0.2791" relative="1" as="geometry">
            <mxPoint as="offset" />
          </mxGeometry>
        </mxCell>
        <mxCell id="jWXVGDuvpxij76FHgJUa-181" style="edgeStyle=orthogonalEdgeStyle;rounded=0;orthogonalLoop=1;jettySize=auto;html=1;entryX=0;entryY=0.5;entryDx=0;entryDy=0;fontSize=16;startArrow=none;startFill=0;" edge="1" parent="jWXVGDuvpxij76FHgJUa-127" source="jWXVGDuvpxij76FHgJUa-182" target="jWXVGDuvpxij76FHgJUa-152">
          <mxGeometry relative="1" as="geometry" />
        </mxCell>
        <mxCell id="jWXVGDuvpxij76FHgJUa-182" value="采码" style="html=1;dashed=0;whitespace=wrap;fontSize=16;" vertex="1" parent="jWXVGDuvpxij76FHgJUa-127">
          <mxGeometry x="405" y="295" width="100" height="50" as="geometry" />
        </mxCell>
        <mxCell id="jWXVGDuvpxij76FHgJUa-183" value="" style="swimlane;startSize=0;fontSize=16;" vertex="1" parent="jWXVGDuvpxij76FHgJUa-127">
          <mxGeometry x="145" y="415" width="100" height="155" as="geometry" />
        </mxCell>
        <mxCell id="jWXVGDuvpxij76FHgJUa-184" value="采码指令" style="html=1;dashed=0;whitespace=wrap;shape=mxgraph.dfd.loop;fontSize=16;" vertex="1" parent="jWXVGDuvpxij76FHgJUa-183">
          <mxGeometry x="10" y="17.5" width="80" height="30" as="geometry" />
        </mxCell>
        <mxCell id="jWXVGDuvpxij76FHgJUa-185" value="解码指令" style="html=1;dashed=0;whitespace=wrap;shape=mxgraph.dfd.loop;fontSize=16;" vertex="1" parent="jWXVGDuvpxij76FHgJUa-183">
          <mxGeometry x="10" y="47.5" width="80" height="30" as="geometry" />
        </mxCell>
        <mxCell id="jWXVGDuvpxij76FHgJUa-186" value="编码指令" style="html=1;dashed=0;whitespace=wrap;shape=mxgraph.dfd.loop;fontSize=16;" vertex="1" parent="jWXVGDuvpxij76FHgJUa-183">
          <mxGeometry x="10" y="77.5" width="80" height="30" as="geometry" />
        </mxCell>
        <mxCell id="jWXVGDuvpxij76FHgJUa-187" value="发送指令" style="html=1;dashed=0;whitespace=wrap;shape=mxgraph.dfd.loop;fontSize=16;" vertex="1" parent="jWXVGDuvpxij76FHgJUa-183">
          <mxGeometry x="10" y="107.5" width="80" height="30" as="geometry" />
        </mxCell>
        <mxCell id="jWXVGDuvpxij76FHgJUa-163" style="edgeStyle=orthogonalEdgeStyle;rounded=0;orthogonalLoop=1;jettySize=auto;html=1;exitX=0.5;exitY=0;exitDx=0;exitDy=0;exitPerimeter=0;entryX=0;entryY=0.5;entryDx=0;entryDy=0;fontSize=16;startArrow=none;startFill=0;" edge="1" parent="jWXVGDuvpxij76FHgJUa-127" source="jWXVGDuvpxij76FHgJUa-184" target="jWXVGDuvpxij76FHgJUa-182">
          <mxGeometry relative="1" as="geometry" />
        </mxCell>
        <mxCell id="jWXVGDuvpxij76FHgJUa-165" style="edgeStyle=orthogonalEdgeStyle;rounded=0;orthogonalLoop=1;jettySize=auto;html=1;entryX=0;entryY=0.5;entryDx=0;entryDy=0;fontSize=16;startArrow=none;startFill=0;" edge="1" parent="jWXVGDuvpxij76FHgJUa-127" source="jWXVGDuvpxij76FHgJUa-186" target="jWXVGDuvpxij76FHgJUa-168">
          <mxGeometry relative="1" as="geometry" />
        </mxCell>
        <mxCell id="jWXVGDuvpxij76FHgJUa-188" style="edgeStyle=orthogonalEdgeStyle;rounded=0;orthogonalLoop=1;jettySize=auto;html=1;exitX=1;exitY=0.5;exitDx=0;exitDy=0;entryX=0;entryY=0.5;entryDx=0;entryDy=0;fontSize=16;startArrow=none;startFill=0;" edge="1" parent="jWXVGDuvpxij76FHgJUa-127" source="jWXVGDuvpxij76FHgJUa-139" target="jWXVGDuvpxij76FHgJUa-183">
          <mxGeometry relative="1" as="geometry" />
        </mxCell>
        <mxCell id="jWXVGDuvpxij76FHgJUa-166" style="edgeStyle=orthogonalEdgeStyle;rounded=0;orthogonalLoop=1;jettySize=auto;html=1;entryX=0;entryY=0.5;entryDx=0;entryDy=0;fontSize=16;startArrow=none;startFill=0;exitX=0.5;exitY=1;exitDx=0;exitDy=0;exitPerimeter=0;" edge="1" parent="jWXVGDuvpxij76FHgJUa-127" source="jWXVGDuvpxij76FHgJUa-187" target="jWXVGDuvpxij76FHgJUa-175">
          <mxGeometry relative="1" as="geometry" />
        </mxCell>
        <mxCell id="jWXVGDuvpxij76FHgJUa-189" style="edgeStyle=orthogonalEdgeStyle;rounded=0;orthogonalLoop=1;jettySize=auto;html=1;exitX=0.5;exitY=0;exitDx=0;exitDy=0;fontSize=16;startArrow=none;startFill=0;entryX=0.5;entryY=0;entryDx=0;entryDy=0;" edge="1" parent="jWXVGDuvpxij76FHgJUa-127" source="jWXVGDuvpxij76FHgJUa-147" target="jWXVGDuvpxij76FHgJUa-142">
          <mxGeometry relative="1" as="geometry">
            <Array as="points">
              <mxPoint x="660" y="60" />
              <mxPoint x="255" y="60" />
            </Array>
            <mxPoint x="665" y="80" as="sourcePoint" />
            <mxPoint x="250" y="130" as="targetPoint" />
          </mxGeometry>
        </mxCell>
        <mxCell id="jWXVGDuvpxij76FHgJUa-190" value="No" style="edgeLabel;html=1;align=center;verticalAlign=middle;resizable=0;points=[];fontSize=16;" vertex="1" connectable="0" parent="jWXVGDuvpxij76FHgJUa-189">
          <mxGeometry x="-0.1379" relative="1" as="geometry">
            <mxPoint as="offset" />
          </mxGeometry>
        </mxCell>
        <mxCell id="jWXVGDuvpxij76FHgJUa-77" value="" style="swimlane;startSize=0;fontSize=16;dashed=1;" vertex="1" parent="WIyWlLk6GJQsqaUBKTNV-1">
          <mxGeometry x="120" y="1130" width="740" height="310" as="geometry">
            <mxRectangle x="110" y="1120" width="50" height="40" as="alternateBounds" />
          </mxGeometry>
        </mxCell>
        <mxCell id="jWXVGDuvpxij76FHgJUa-78" value="Setup" style="text;html=1;align=center;verticalAlign=middle;resizable=0;points=[];autosize=1;strokeColor=none;fontSize=16;" vertex="1" parent="jWXVGDuvpxij76FHgJUa-77">
          <mxGeometry x="10" width="60" height="20" as="geometry" />
        </mxCell>
        <mxCell id="jWXVGDuvpxij76FHgJUa-48" value="WIFI连接" style="html=1;dashed=0;whitespace=wrap;fontSize=16;" vertex="1" parent="jWXVGDuvpxij76FHgJUa-77">
          <mxGeometry x="120" y="120" width="100" height="50" as="geometry" />
        </mxCell>
        <mxCell id="jWXVGDuvpxij76FHgJUa-49" value="连接成功？" style="shape=rhombus;html=1;dashed=0;whitespace=wrap;perimeter=rhombusPerimeter;fontSize=16;" vertex="1" parent="jWXVGDuvpxij76FHgJUa-77">
          <mxGeometry x="110" y="230" width="120" height="50" as="geometry" />
        </mxCell>
        <mxCell id="jWXVGDuvpxij76FHgJUa-64" style="edgeStyle=orthogonalEdgeStyle;rounded=0;orthogonalLoop=1;jettySize=auto;html=1;exitX=0.5;exitY=1;exitDx=0;exitDy=0;entryX=0.5;entryY=0;entryDx=0;entryDy=0;fontSize=16;startArrow=none;startFill=0;" edge="1" parent="jWXVGDuvpxij76FHgJUa-77" source="jWXVGDuvpxij76FHgJUa-48" target="jWXVGDuvpxij76FHgJUa-49">
          <mxGeometry relative="1" as="geometry" />
        </mxCell>
        <mxCell id="jWXVGDuvpxij76FHgJUa-50" value="WIFI&amp;nbsp;AP配置" style="html=1;dashed=0;whitespace=wrap;fontSize=16;" vertex="1" parent="jWXVGDuvpxij76FHgJUa-77">
          <mxGeometry x="364.5" y="170" width="100" height="50" as="geometry" />
        </mxCell>
        <mxCell id="jWXVGDuvpxij76FHgJUa-62" style="edgeStyle=orthogonalEdgeStyle;rounded=0;orthogonalLoop=1;jettySize=auto;html=1;exitX=1;exitY=0.5;exitDx=0;exitDy=0;entryX=0;entryY=0.5;entryDx=0;entryDy=0;fontSize=16;startArrow=none;startFill=0;" edge="1" parent="jWXVGDuvpxij76FHgJUa-77" source="jWXVGDuvpxij76FHgJUa-49" target="jWXVGDuvpxij76FHgJUa-50">
          <mxGeometry relative="1" as="geometry" />
        </mxCell>
        <mxCell id="jWXVGDuvpxij76FHgJUa-63" value="No" style="edgeLabel;html=1;align=center;verticalAlign=middle;resizable=0;points=[];fontSize=16;" vertex="1" connectable="0" parent="jWXVGDuvpxij76FHgJUa-62">
          <mxGeometry x="0.1445" y="1" relative="1" as="geometry">
            <mxPoint as="offset" />
          </mxGeometry>
        </mxCell>
        <mxCell id="jWXVGDuvpxij76FHgJUa-60" style="edgeStyle=orthogonalEdgeStyle;rounded=0;orthogonalLoop=1;jettySize=auto;html=1;exitX=0.5;exitY=1;exitDx=0;exitDy=0;entryX=0.5;entryY=1;entryDx=0;entryDy=0;fontSize=16;startArrow=none;startFill=0;" edge="1" parent="jWXVGDuvpxij76FHgJUa-77" source="jWXVGDuvpxij76FHgJUa-51" target="jWXVGDuvpxij76FHgJUa-50">
          <mxGeometry relative="1" as="geometry" />
        </mxCell>
        <mxCell id="jWXVGDuvpxij76FHgJUa-61" value="No" style="edgeLabel;html=1;align=center;verticalAlign=middle;resizable=0;points=[];fontSize=16;" vertex="1" connectable="0" parent="jWXVGDuvpxij76FHgJUa-60">
          <mxGeometry x="-0.1772" relative="1" as="geometry">
            <mxPoint as="offset" />
          </mxGeometry>
        </mxCell>
        <mxCell id="jWXVGDuvpxij76FHgJUa-51" value="两分钟超时？" style="shape=rhombus;html=1;dashed=0;whitespace=wrap;perimeter=rhombusPerimeter;fontSize=16;" vertex="1" parent="jWXVGDuvpxij76FHgJUa-77">
          <mxGeometry x="560" y="170" width="120" height="50" as="geometry" />
        </mxCell>
        <mxCell id="jWXVGDuvpxij76FHgJUa-57" style="edgeStyle=orthogonalEdgeStyle;rounded=0;orthogonalLoop=1;jettySize=auto;html=1;exitX=1;exitY=0.5;exitDx=0;exitDy=0;entryX=0;entryY=0.5;entryDx=0;entryDy=0;fontSize=16;startArrow=none;startFill=0;" edge="1" parent="jWXVGDuvpxij76FHgJUa-77" source="jWXVGDuvpxij76FHgJUa-50" target="jWXVGDuvpxij76FHgJUa-51">
          <mxGeometry relative="1" as="geometry" />
        </mxCell>
        <mxCell id="jWXVGDuvpxij76FHgJUa-55" style="edgeStyle=orthogonalEdgeStyle;rounded=0;orthogonalLoop=1;jettySize=auto;html=1;entryX=0.5;entryY=0;entryDx=0;entryDy=0;fontSize=16;startArrow=none;startFill=0;" edge="1" parent="jWXVGDuvpxij76FHgJUa-77" source="jWXVGDuvpxij76FHgJUa-52" target="jWXVGDuvpxij76FHgJUa-48">
          <mxGeometry relative="1" as="geometry" />
        </mxCell>
        <mxCell id="jWXVGDuvpxij76FHgJUa-52" value="重置" style="html=1;dashed=0;whitespace=wrap;shape=mxgraph.dfd.start;fontSize=16;" vertex="1" parent="jWXVGDuvpxij76FHgJUa-77">
          <mxGeometry x="370" y="19" width="89" height="30" as="geometry" />
        </mxCell>
        <mxCell id="jWXVGDuvpxij76FHgJUa-56" style="edgeStyle=orthogonalEdgeStyle;rounded=0;orthogonalLoop=1;jettySize=auto;html=1;entryX=0.5;entryY=0.5;entryDx=0;entryDy=15;entryPerimeter=0;fontSize=16;startArrow=none;startFill=0;" edge="1" parent="jWXVGDuvpxij76FHgJUa-77" source="jWXVGDuvpxij76FHgJUa-50" target="jWXVGDuvpxij76FHgJUa-52">
          <mxGeometry relative="1" as="geometry" />
        </mxCell>
        <mxCell id="jWXVGDuvpxij76FHgJUa-53" style="edgeStyle=orthogonalEdgeStyle;rounded=0;orthogonalLoop=1;jettySize=auto;html=1;exitX=0.5;exitY=0;exitDx=0;exitDy=0;entryX=1;entryY=0.5;entryDx=0;entryDy=0;entryPerimeter=0;fontSize=16;startArrow=none;startFill=0;" edge="1" parent="jWXVGDuvpxij76FHgJUa-77" source="jWXVGDuvpxij76FHgJUa-51" target="jWXVGDuvpxij76FHgJUa-52">
          <mxGeometry relative="1" as="geometry" />
        </mxCell>
        <mxCell id="jWXVGDuvpxij76FHgJUa-58" value="是" style="edgeLabel;html=1;align=center;verticalAlign=middle;resizable=0;points=[];fontSize=16;" vertex="1" connectable="0" parent="jWXVGDuvpxij76FHgJUa-53">
          <mxGeometry x="-0.6094" y="-1" relative="1" as="geometry">
            <mxPoint as="offset" />
          </mxGeometry>
        </mxCell>
        <mxCell id="jWXVGDuvpxij76FHgJUa-59" value="Yes" style="edgeLabel;html=1;align=center;verticalAlign=middle;resizable=0;points=[];fontSize=16;" vertex="1" connectable="0" parent="jWXVGDuvpxij76FHgJUa-53">
          <mxGeometry x="-0.6094" y="-4" relative="1" as="geometry">
            <mxPoint as="offset" />
          </mxGeometry>
        </mxCell>
        <mxCell id="7-sAUaGDbd0qWvUfUDHB-1" value="" style="swimlane;startSize=0;fontSize=40;" parent="WIyWlLk6GJQsqaUBKTNV-1" vertex="1">
          <mxGeometry x="210" y="300" width="750" height="500" as="geometry" />
        </mxCell>
        <mxCell id="7-sAUaGDbd0qWvUfUDHB-3" value="采码组件" style="rounded=1;whiteSpace=wrap;html=1;fontSize=24;" parent="7-sAUaGDbd0qWvUfUDHB-1" vertex="1">
          <mxGeometry x="90" y="335" width="120" height="60" as="geometry" />
        </mxCell>
        <mxCell id="7-sAUaGDbd0qWvUfUDHB-6" value="编码组件" style="rounded=1;whiteSpace=wrap;html=1;fontSize=24;" parent="7-sAUaGDbd0qWvUfUDHB-1" vertex="1">
          <mxGeometry x="370" y="335" width="120" height="60" as="geometry" />
        </mxCell>
        <mxCell id="7-sAUaGDbd0qWvUfUDHB-4" value="解码组件" style="rounded=1;whiteSpace=wrap;html=1;fontSize=24;" parent="7-sAUaGDbd0qWvUfUDHB-1" vertex="1">
          <mxGeometry x="220" y="335" width="120" height="60" as="geometry" />
        </mxCell>
        <mxCell id="7-sAUaGDbd0qWvUfUDHB-5" value="发送组件" style="rounded=1;whiteSpace=wrap;html=1;fontSize=24;" parent="7-sAUaGDbd0qWvUfUDHB-1" vertex="1">
          <mxGeometry x="510" y="335" width="120" height="60" as="geometry" />
        </mxCell>
        <mxCell id="jWXVGDuvpxij76FHgJUa-36" style="edgeStyle=orthogonalEdgeStyle;rounded=0;orthogonalLoop=1;jettySize=auto;html=1;entryX=0.25;entryY=0;entryDx=0;entryDy=0;startArrow=classic;startFill=1;exitX=0.5;exitY=1;exitDx=0;exitDy=0;" edge="1" parent="7-sAUaGDbd0qWvUfUDHB-1" source="jWXVGDuvpxij76FHgJUa-27" target="jWXVGDuvpxij76FHgJUa-29">
          <mxGeometry relative="1" as="geometry" />
        </mxCell>
        <mxCell id="jWXVGDuvpxij76FHgJUa-27" value="MQTT" style="ellipse;whiteSpace=wrap;html=1;" vertex="1" parent="7-sAUaGDbd0qWvUfUDHB-1">
          <mxGeometry x="124" y="80" width="120" height="60" as="geometry" />
        </mxCell>
        <mxCell id="jWXVGDuvpxij76FHgJUa-28" value="串口" style="ellipse;whiteSpace=wrap;html=1;" vertex="1" parent="7-sAUaGDbd0qWvUfUDHB-1">
          <mxGeometry x="460" y="80" width="120" height="60" as="geometry" />
        </mxCell>
        <mxCell id="jWXVGDuvpxij76FHgJUa-31" style="edgeStyle=orthogonalEdgeStyle;rounded=0;orthogonalLoop=1;jettySize=auto;html=1;entryX=0.5;entryY=0;entryDx=0;entryDy=0;startArrow=classic;startFill=1;" edge="1" parent="7-sAUaGDbd0qWvUfUDHB-1" source="jWXVGDuvpxij76FHgJUa-29" target="7-sAUaGDbd0qWvUfUDHB-3">
          <mxGeometry relative="1" as="geometry" />
        </mxCell>
        <mxCell id="jWXVGDuvpxij76FHgJUa-32" style="edgeStyle=orthogonalEdgeStyle;rounded=0;orthogonalLoop=1;jettySize=auto;html=1;entryX=0.575;entryY=0;entryDx=0;entryDy=0;entryPerimeter=0;startArrow=classic;startFill=1;exitX=0.25;exitY=1;exitDx=0;exitDy=0;" edge="1" parent="7-sAUaGDbd0qWvUfUDHB-1" source="jWXVGDuvpxij76FHgJUa-29" target="7-sAUaGDbd0qWvUfUDHB-4">
          <mxGeometry relative="1" as="geometry" />
        </mxCell>
        <mxCell id="jWXVGDuvpxij76FHgJUa-33" style="edgeStyle=orthogonalEdgeStyle;rounded=0;orthogonalLoop=1;jettySize=auto;html=1;entryX=0.5;entryY=0;entryDx=0;entryDy=0;startArrow=classic;startFill=1;exitX=0.75;exitY=1;exitDx=0;exitDy=0;" edge="1" parent="7-sAUaGDbd0qWvUfUDHB-1" source="jWXVGDuvpxij76FHgJUa-29" target="7-sAUaGDbd0qWvUfUDHB-6">
          <mxGeometry relative="1" as="geometry" />
        </mxCell>
        <mxCell id="jWXVGDuvpxij76FHgJUa-34" style="edgeStyle=orthogonalEdgeStyle;rounded=0;orthogonalLoop=1;jettySize=auto;html=1;entryX=0.5;entryY=0;entryDx=0;entryDy=0;startArrow=classic;startFill=1;" edge="1" parent="7-sAUaGDbd0qWvUfUDHB-1" source="jWXVGDuvpxij76FHgJUa-29" target="7-sAUaGDbd0qWvUfUDHB-5">
          <mxGeometry relative="1" as="geometry" />
        </mxCell>
        <mxCell id="jWXVGDuvpxij76FHgJUa-35" style="edgeStyle=orthogonalEdgeStyle;rounded=0;orthogonalLoop=1;jettySize=auto;html=1;entryX=0.5;entryY=1;entryDx=0;entryDy=0;startArrow=classic;startFill=1;exitX=0.75;exitY=0;exitDx=0;exitDy=0;" edge="1" parent="7-sAUaGDbd0qWvUfUDHB-1" source="jWXVGDuvpxij76FHgJUa-29" target="jWXVGDuvpxij76FHgJUa-28">
          <mxGeometry relative="1" as="geometry" />
        </mxCell>
        <mxCell id="jWXVGDuvpxij76FHgJUa-29" value="&lt;span style=&quot;font-size: 24px&quot;&gt;指令组件&lt;/span&gt;" style="rounded=1;whiteSpace=wrap;html=1;" vertex="1" parent="7-sAUaGDbd0qWvUfUDHB-1">
          <mxGeometry x="300" y="195" width="120" height="60" as="geometry" />
        </mxCell>
        <mxCell id="7-sAUaGDbd0qWvUfUDHB-2" value="ESP32/8266" style="text;html=1;align=center;verticalAlign=middle;resizable=0;points=[];autosize=1;strokeColor=none;fontSize=30;" parent="7-sAUaGDbd0qWvUfUDHB-1" vertex="1">
          <mxGeometry x="270" y="20" width="180" height="40" as="geometry" />
        </mxCell>
        <mxCell id="jWXVGDuvpxij76FHgJUa-39" value="WIFI&amp;nbsp;AP" style="ellipse;whiteSpace=wrap;html=1;" vertex="1" parent="7-sAUaGDbd0qWvUfUDHB-1">
          <mxGeometry x="610" y="150" width="120" height="60" as="geometry" />
        </mxCell>
        <mxCell id="7-sAUaGDbd0qWvUfUDHB-0" value="组件结构图" style="text;html=1;strokeColor=none;fillColor=none;align=center;verticalAlign=middle;whiteSpace=wrap;rounded=0;fontSize=40;" parent="WIyWlLk6GJQsqaUBKTNV-1" vertex="1">
          <mxGeometry x="410" y="70" width="290" height="50" as="geometry" />
        </mxCell>
        <mxCell id="7-sAUaGDbd0qWvUfUDHB-11" style="edgeStyle=orthogonalEdgeStyle;curved=1;rounded=0;orthogonalLoop=1;jettySize=auto;html=1;entryX=0;entryY=0.5;entryDx=0;entryDy=0;fontSize=24;" parent="WIyWlLk6GJQsqaUBKTNV-1" source="7-sAUaGDbd0qWvUfUDHB-7" target="7-sAUaGDbd0qWvUfUDHB-3" edge="1">
          <mxGeometry relative="1" as="geometry">
            <mxPoint x="230" y="530" as="sourcePoint" />
          </mxGeometry>
        </mxCell>
        <mxCell id="7-sAUaGDbd0qWvUfUDHB-7" value="&lt;font style=&quot;font-size: 16px&quot;&gt;RF/IR接收&lt;/font&gt;" style="image;html=1;image=img/lib/clip_art/telecommunication/Signal_tower_off_128x128.png;fontSize=24;" parent="WIyWlLk6GJQsqaUBKTNV-1" vertex="1">
          <mxGeometry x="90" y="625" width="90" height="80" as="geometry" />
        </mxCell>
        <mxCell id="7-sAUaGDbd0qWvUfUDHB-8" value="&lt;font style=&quot;font-size: 16px&quot;&gt;RF/IR发送&lt;/font&gt;" style="image;html=1;image=img/lib/clip_art/telecommunication/Signal_tower_on_128x128.png;fontSize=24;" parent="WIyWlLk6GJQsqaUBKTNV-1" vertex="1">
          <mxGeometry x="1020" y="625" width="80" height="80" as="geometry" />
        </mxCell>
        <mxCell id="7-sAUaGDbd0qWvUfUDHB-10" style="edgeStyle=orthogonalEdgeStyle;curved=1;rounded=0;orthogonalLoop=1;jettySize=auto;html=1;exitX=1;exitY=0.5;exitDx=0;exitDy=0;fontSize=24;" parent="WIyWlLk6GJQsqaUBKTNV-1" source="7-sAUaGDbd0qWvUfUDHB-5" target="7-sAUaGDbd0qWvUfUDHB-8" edge="1">
          <mxGeometry relative="1" as="geometry" />
        </mxCell>
        <mxCell id="jWXVGDuvpxij76FHgJUa-40" value="" style="image;html=1;image=img/lib/clip_art/computers/Laptop_128x128.png;fontSize=30;" vertex="1" parent="WIyWlLk6GJQsqaUBKTNV-1">
          <mxGeometry x="690" y="180" width="80" height="80" as="geometry" />
        </mxCell>
        <mxCell id="jWXVGDuvpxij76FHgJUa-41" style="edgeStyle=orthogonalEdgeStyle;rounded=0;orthogonalLoop=1;jettySize=auto;html=1;exitX=0.5;exitY=0;exitDx=0;exitDy=0;entryX=0.5;entryY=1;entryDx=0;entryDy=0;fontSize=30;startArrow=classic;startFill=1;" edge="1" parent="WIyWlLk6GJQsqaUBKTNV-1" source="jWXVGDuvpxij76FHgJUa-28" target="jWXVGDuvpxij76FHgJUa-40">
          <mxGeometry relative="1" as="geometry" />
        </mxCell>
        <mxCell id="jWXVGDuvpxij76FHgJUa-42" value="" style="image;html=1;image=img/lib/clip_art/computers/Server_128x128.png;fontSize=30;" vertex="1" parent="WIyWlLk6GJQsqaUBKTNV-1">
          <mxGeometry x="354" y="180" width="80" height="80" as="geometry" />
        </mxCell>
        <mxCell id="jWXVGDuvpxij76FHgJUa-43" style="edgeStyle=orthogonalEdgeStyle;rounded=0;orthogonalLoop=1;jettySize=auto;html=1;exitX=0.5;exitY=0;exitDx=0;exitDy=0;fontSize=30;startArrow=classic;startFill=1;" edge="1" parent="WIyWlLk6GJQsqaUBKTNV-1" source="jWXVGDuvpxij76FHgJUa-27" target="jWXVGDuvpxij76FHgJUa-42">
          <mxGeometry relative="1" as="geometry" />
        </mxCell>
        <mxCell id="jWXVGDuvpxij76FHgJUa-46" value="逻辑流程图" style="text;html=1;strokeColor=none;fillColor=none;align=center;verticalAlign=middle;whiteSpace=wrap;rounded=0;fontSize=40;" vertex="1" parent="WIyWlLk6GJQsqaUBKTNV-1">
          <mxGeometry x="434" y="960" width="290" height="50" as="geometry" />
        </mxCell>
        <mxCell id="jWXVGDuvpxij76FHgJUa-54" style="edgeStyle=orthogonalEdgeStyle;rounded=0;orthogonalLoop=1;jettySize=auto;html=1;exitX=0.5;exitY=0.5;exitDx=0;exitDy=15;exitPerimeter=0;entryX=0.5;entryY=0;entryDx=0;entryDy=0;fontSize=16;startArrow=none;startFill=0;" edge="1" parent="WIyWlLk6GJQsqaUBKTNV-1" source="jWXVGDuvpxij76FHgJUa-47" target="jWXVGDuvpxij76FHgJUa-48">
          <mxGeometry relative="1" as="geometry" />
        </mxCell>
        <mxCell id="jWXVGDuvpxij76FHgJUa-47" value="上电" style="html=1;dashed=0;whitespace=wrap;shape=mxgraph.dfd.start;fontSize=16;" vertex="1" parent="WIyWlLk6GJQsqaUBKTNV-1">
          <mxGeometry x="230" y="1080" width="120" height="30" as="geometry" />
        </mxCell>
        <mxCell id="jWXVGDuvpxij76FHgJUa-67" style="edgeStyle=orthogonalEdgeStyle;rounded=0;orthogonalLoop=1;jettySize=auto;html=1;exitX=0.5;exitY=1;exitDx=0;exitDy=0;entryX=0.5;entryY=0;entryDx=0;entryDy=0;fontSize=16;startArrow=none;startFill=0;" edge="1" parent="WIyWlLk6GJQsqaUBKTNV-1" source="jWXVGDuvpxij76FHgJUa-49" target="jWXVGDuvpxij76FHgJUa-142">
          <mxGeometry relative="1" as="geometry">
            <mxPoint x="295" y="1620" as="targetPoint" />
          </mxGeometry>
        </mxCell>
        <mxCell id="jWXVGDuvpxij76FHgJUa-68" value="Yes" style="edgeLabel;html=1;align=center;verticalAlign=middle;resizable=0;points=[];fontSize=16;" vertex="1" connectable="0" parent="jWXVGDuvpxij76FHgJUa-67">
          <mxGeometry x="-0.264" relative="1" as="geometry">
            <mxPoint as="offset" />
          </mxGeometry>
        </mxCell>
        <mxCell id="jWXVGDuvpxij76FHgJUa-75" style="edgeStyle=orthogonalEdgeStyle;rounded=0;orthogonalLoop=1;jettySize=auto;html=1;exitX=0;exitY=0.5;exitDx=0;exitDy=0;entryX=0;entryY=0.5;entryDx=0;entryDy=0;fontSize=16;startArrow=none;startFill=0;" edge="1" parent="WIyWlLk6GJQsqaUBKTNV-1" source="jWXVGDuvpxij76FHgJUa-142" target="jWXVGDuvpxij76FHgJUa-48">
          <mxGeometry relative="1" as="geometry">
            <mxPoint x="230" y="1650" as="sourcePoint" />
            <Array as="points">
              <mxPoint x="210" y="1650" />
              <mxPoint x="210" y="1275" />
            </Array>
          </mxGeometry>
        </mxCell>
        <mxCell id="jWXVGDuvpxij76FHgJUa-76" value="No" style="edgeLabel;html=1;align=center;verticalAlign=middle;resizable=0;points=[];fontSize=16;" vertex="1" connectable="0" parent="jWXVGDuvpxij76FHgJUa-75">
          <mxGeometry x="-0.1765" y="-2" relative="1" as="geometry">
            <mxPoint as="offset" />
          </mxGeometry>
        </mxCell>
        <mxCell id="jWXVGDuvpxij76FHgJUa-92" style="edgeStyle=orthogonalEdgeStyle;rounded=0;orthogonalLoop=1;jettySize=auto;html=1;exitX=0;exitY=0.5;exitDx=0;exitDy=0;entryX=0.5;entryY=0;entryDx=0;entryDy=0;fontSize=16;startArrow=none;startFill=0;" edge="1" parent="WIyWlLk6GJQsqaUBKTNV-1" source="jWXVGDuvpxij76FHgJUa-49">
          <mxGeometry relative="1" as="geometry">
            <mxPoint x="495" y="1815" as="targetPoint" />
            <Array as="points">
              <mxPoint x="160" y="1385" />
              <mxPoint x="160" y="1740" />
              <mxPoint x="490" y="1740" />
            </Array>
          </mxGeometry>
        </mxCell>
      </root>
    </mxGraphModel>
  </diagram>
</mxfile>
